<svg xmlns="http://www.w3.org/2000/svg" xmlns:xlink="http://www.w3.org/1999/xlink" contentStyleType="text/css" data-diagram-type="CLASS" height="582px" preserveAspectRatio="none" style="width:530px;height:582px;background:#FFFFFF;" version="1.1" viewBox="0 0 530 582" width="530px" zoomAndPan="magnify"><defs/><g><!--cluster pandas--><g class="cluster" data-entity="pandas" data-source-line="29" data-uid="ent0008" id="cluster_pandas"><path d="M358.55,476.53 L416.7873,476.53 A3.75,3.75 0 0 1 419.2873,479.03 L426.2873,498.8269 L495.55,498.8269 A2.5,2.5 0 0 1 498.05,501.3269 L498.05,573.03 A2.5,2.5 0 0 1 495.55,575.53 L358.55,575.53 A2.5,2.5 0 0 1 356.05,573.03 L356.05,479.03 A2.5,2.5 0 0 1 358.55,476.53" fill="none" style="stroke:#000000;stroke-width:1.5;"/><line style="stroke:#000000;stroke-width:1.5;" x1="356.05" x2="426.2873" y1="498.8269" y2="498.8269"/><text fill="#000000" font-family="sans-serif" font-size="14" font-weight="bold" lengthAdjust="spacing" textLength="57.2373" x="360.05" y="491.5251">pandas</text></g><!--class DataFrame--><g class="entity" data-entity="DataFrame" data-source-line="29" data-uid="ent0007" id="entity_DataFrame"><rect fill="#F1F1F1" height="48" rx="2.5" ry="2.5" style="stroke:#181818;stroke-width:0.5;" width="110.0664" x="372.02" y="511.53"/><ellipse cx="387.02" cy="527.53" fill="#ADD1B2" rx="11" ry="11" style="stroke:#181818;stroke-width:1;"/><path d="M389.9888,533.1706 Q389.4106,533.4675 388.77,533.6081 Q388.1294,533.7644 387.4263,533.7644 Q384.9263,533.7644 383.5981,532.1238 Q382.2856,530.4675 382.2856,527.3425 Q382.2856,524.2175 383.5981,522.5613 Q384.9263,520.905 387.4263,520.905 Q388.1294,520.905 388.77,521.0613 Q389.4263,521.2175 389.9888,521.5144 L389.9888,524.2331 Q389.3638,523.655 388.77,523.3894 Q388.1763,523.1081 387.5513,523.1081 Q386.2075,523.1081 385.52,524.1863 Q384.8325,525.2488 384.8325,527.3425 Q384.8325,529.4363 385.52,530.5144 Q386.2075,531.5769 387.5513,531.5769 Q388.1763,531.5769 388.77,531.3113 Q389.3638,531.03 389.9888,530.4519 L389.9888,533.1706 Z " fill="#000000"/><text fill="#000000" font-family="sans-serif" font-size="14" lengthAdjust="spacing" textLength="78.0664" x="401.02" y="532.3767">DataFrame</text><line style="stroke:#181818;stroke-width:0.5;" x1="373.02" x2="481.0864" y1="543.53" y2="543.53"/><line style="stroke:#181818;stroke-width:0.5;" x1="373.02" x2="481.0864" y1="551.53" y2="551.53"/></g><!--class Neo4jDatabase--><g class="entity" data-entity="Neo4jDatabase" data-source-line="1" data-uid="ent0002" id="entity_Neo4jDatabase"><rect fill="#F1F1F1" height="406.5313" rx="2.5" ry="2.5" style="stroke:#181818;stroke-width:0.5;" width="514.0996" x="9" y="7"/><ellipse cx="208.1753" cy="23" fill="#ADD1B2" rx="11" ry="11" style="stroke:#181818;stroke-width:1;"/><path d="M211.144,28.6406 Q210.5659,28.9375 209.9253,29.0781 Q209.2847,29.2344 208.5815,29.2344 Q206.0815,29.2344 204.7534,27.5938 Q203.4409,25.9375 203.4409,22.8125 Q203.4409,19.6875 204.7534,18.0313 Q206.0815,16.375 208.5815,16.375 Q209.2847,16.375 209.9253,16.5313 Q210.5815,16.6875 211.144,16.9844 L211.144,19.7031 Q210.519,19.125 209.9253,18.8594 Q209.3315,18.5781 208.7065,18.5781 Q207.3628,18.5781 206.6753,19.6563 Q205.9878,20.7188 205.9878,22.8125 Q205.9878,24.9063 206.6753,25.9844 Q207.3628,27.0469 208.7065,27.0469 Q209.3315,27.0469 209.9253,26.7813 Q210.519,26.5 211.144,25.9219 L211.144,28.6406 Z " fill="#000000"/><text fill="#000000" font-family="sans-serif" font-size="14" lengthAdjust="spacing" textLength="107.249" x="228.6753" y="27.8467">Neo4jDatabase</text><line style="stroke:#181818;stroke-width:0.5;" x1="10" x2="522.0996" y1="39" y2="39"/><rect fill="none" height="6" style="stroke:#C82930;stroke-width:1;" width="6" x="17" y="49.6484"/><text fill="#000000" font-family="sans-serif" font-size="14" lengthAdjust="spacing" textLength="53.2246" x="29" y="55.9951">_uri: str</text><rect fill="none" height="6" style="stroke:#C82930;stroke-width:1;" width="6" x="17" y="65.9453"/><text fill="#000000" font-family="sans-serif" font-size="14" lengthAdjust="spacing" textLength="65.2422" x="29" y="72.292">_user: str</text><rect fill="none" height="6" style="stroke:#C82930;stroke-width:1;" width="6" x="17" y="82.2422"/><text fill="#000000" font-family="sans-serif" font-size="14" lengthAdjust="spacing" textLength="101.418" x="29" y="88.5889">_password: str</text><rect fill="none" height="6" style="stroke:#C82930;stroke-width:1;" width="6" x="17" y="98.5391"/><text fill="#000000" font-family="sans-serif" font-size="14" lengthAdjust="spacing" textLength="205.7344" x="29" y="104.8857">driver: GraphDatabase.driver</text><line style="stroke:#181818;stroke-width:0.5;" x1="10" x2="522.0996" y1="112.1875" y2="112.1875"/><ellipse cx="20" cy="125.8359" fill="#84BE84" rx="3" ry="3" style="stroke:#038048;stroke-width:1;"/><text fill="#000000" font-family="sans-serif" font-size="14" lengthAdjust="spacing" textLength="488.0996" x="29" y="129.1826">__init__(uri: Optional[str], user: Optional[str], password: Optional[str])</text><ellipse cx="20" cy="142.1328" fill="#84BE84" rx="3" ry="3" style="stroke:#038048;stroke-width:1;"/><text fill="#000000" font-family="sans-serif" font-size="14" lengthAdjust="spacing" textLength="92.6748" x="29" y="145.4795">close(): None</text><ellipse cx="20" cy="158.4297" fill="#84BE84" rx="3" ry="3" style="stroke:#038048;stroke-width:1;"/><text fill="#000000" font-family="sans-serif" font-size="14" lengthAdjust="spacing" textLength="480.8877" x="29" y="161.7764">execute_query(query: str, parameters: Optional[Dict[str, Any]]): Any</text><ellipse cx="20" cy="174.7266" fill="#84BE84" rx="3" ry="3" style="stroke:#038048;stroke-width:1;"/><text fill="#000000" font-family="sans-serif" font-size="14" lengthAdjust="spacing" textLength="280.6631" x="29" y="178.0732">store_network(network: Network): None</text><text fill="#000000" font-family="sans-serif" font-size="14" lengthAdjust="spacing" textLength="4.4502" x="29" y="194.3701">&#160;</text><ellipse cx="20" cy="207.3203" fill="#84BE84" rx="3" ry="3" style="stroke:#038048;stroke-width:1;"/><text fill="#000000" font-family="sans-serif" font-size="14" lengthAdjust="spacing" textLength="354.833" x="29" y="210.667">get_activators_of_gene(gene_name: str): List[Dict]</text><ellipse cx="20" cy="223.6172" fill="#84BE84" rx="3" ry="3" style="stroke:#038048;stroke-width:1;"/><text fill="#000000" font-family="sans-serif" font-size="14" lengthAdjust="spacing" textLength="359.0371" x="29" y="226.9639">get_repressors_of_gene(gene_name: str): List[Dict]</text><ellipse cx="20" cy="239.9141" fill="#84BE84" rx="3" ry="3" style="stroke:#038048;stroke-width:1;"/><text fill="#000000" font-family="sans-serif" font-size="14" lengthAdjust="spacing" textLength="356.9111" x="29" y="243.2607">get_regulators_of_gene(gene_name: str): List[Dict]</text><ellipse cx="20" cy="256.2109" fill="#84BE84" rx="3" ry="3" style="stroke:#038048;stroke-width:1;"/><text fill="#000000" font-family="sans-serif" font-size="14" lengthAdjust="spacing" textLength="379.1074" x="29" y="259.5576">get_genes_activated_by_gene(tf_name: str): List[Dict]</text><ellipse cx="20" cy="272.5078" fill="#84BE84" rx="3" ry="3" style="stroke:#038048;stroke-width:1;"/><text fill="#000000" font-family="sans-serif" font-size="14" lengthAdjust="spacing" textLength="383.3115" x="29" y="275.8545">get_genes_repressed_by_gene(tf_name: str): List[Dict]</text><ellipse cx="20" cy="288.8047" fill="#84BE84" rx="3" ry="3" style="stroke:#038048;stroke-width:1;"/><text fill="#000000" font-family="sans-serif" font-size="14" lengthAdjust="spacing" textLength="381.1855" x="29" y="292.1514">get_genes_regulated_by_gene(tf_name: str): List[Dict]</text><text fill="#000000" font-family="sans-serif" font-size="14" lengthAdjust="spacing" textLength="4.4502" x="29" y="308.4482">&#160;</text><ellipse cx="20" cy="321.3984" fill="#84BE84" rx="3" ry="3" style="stroke:#038048;stroke-width:1;"/><text fill="#000000" font-family="sans-serif" font-size="14" lengthAdjust="spacing" textLength="191.0166" x="29" y="324.7451">dumb_method_one(): None</text><ellipse cx="20" cy="337.6953" fill="#84BE84" rx="3" ry="3" style="stroke:#038048;stroke-width:1;"/><text fill="#000000" font-family="sans-serif" font-size="14" lengthAdjust="spacing" textLength="190.4697" x="29" y="341.042">dumb_method_two(): None</text><text fill="#000000" font-family="sans-serif" font-size="14" lengthAdjust="spacing" textLength="4.4502" x="29" y="357.3389">&#160;</text><polygon fill="#FFFF44" points="20,365.2891,24,369.2891,20,373.2891,16,369.2891" style="stroke:#B38D22;stroke-width:1;"/><text fill="#000000" font-family="sans-serif" font-size="14" lengthAdjust="spacing" textLength="483.5127" x="29" y="373.6357">_execute_query(query: str, parameters: Optional[Dict], session): Any</text><polygon fill="#FFFF44" points="20,381.5859,24,385.5859,20,389.5859,16,385.5859" style="stroke:#B38D22;stroke-width:1;"/><text fill="#000000" font-family="sans-serif" font-size="14" lengthAdjust="spacing" textLength="193.1631" x="29" y="389.9326">_create_constraints(): None</text><polygon fill="#FFFF44" points="20,397.8828,24,401.8828,20,405.8828,16,401.8828" style="stroke:#B38D22;stroke-width:1;"/><text fill="#000000" font-family="sans-serif" font-size="14" lengthAdjust="spacing" textLength="321.7813" x="29" y="406.2295">_populate_database(network: Network): None</text></g><!--class Network--><g class="entity" data-entity="Network" data-source-line="27" data-uid="ent0003" id="entity_Network"><rect fill="#F1F1F1" height="48" rx="2.5" ry="2.5" style="stroke:#181818;stroke-width:0.5;" width="90.4541" x="69.82" y="511.53"/><ellipse cx="84.82" cy="527.53" fill="#ADD1B2" rx="11" ry="11" style="stroke:#181818;stroke-width:1;"/><path d="M87.7888,533.1706 Q87.2106,533.4675 86.57,533.6081 Q85.9294,533.7644 85.2263,533.7644 Q82.7263,533.7644 81.3981,532.1238 Q80.0856,530.4675 80.0856,527.3425 Q80.0856,524.2175 81.3981,522.5613 Q82.7263,520.905 85.2263,520.905 Q85.9294,520.905 86.57,521.0613 Q87.2263,521.2175 87.7888,521.5144 L87.7888,524.2331 Q87.1638,523.655 86.57,523.3894 Q85.9763,523.1081 85.3513,523.1081 Q84.0075,523.1081 83.32,524.1863 Q82.6325,525.2488 82.6325,527.3425 Q82.6325,529.4363 83.32,530.5144 Q84.0075,531.5769 85.3513,531.5769 Q85.9763,531.5769 86.57,531.3113 Q87.1638,531.03 87.7888,530.4519 L87.7888,533.1706 Z " fill="#000000"/><text fill="#000000" font-family="sans-serif" font-size="14" lengthAdjust="spacing" textLength="58.4541" x="98.82" y="532.3767">Network</text><line style="stroke:#181818;stroke-width:0.5;" x1="70.82" x2="159.2741" y1="543.53" y2="543.53"/><line style="stroke:#181818;stroke-width:0.5;" x1="70.82" x2="159.2741" y1="551.53" y2="551.53"/></g><!--class GraphDatabase--><g class="entity" data-entity="GraphDatabase" data-source-line="28" data-uid="ent0005" id="entity_GraphDatabase"><rect fill="#F1F1F1" height="48" rx="2.5" ry="2.5" style="stroke:#181818;stroke-width:0.5;" width="141.7441" x="195.18" y="511.53"/><ellipse cx="210.18" cy="527.53" fill="#ADD1B2" rx="11" ry="11" style="stroke:#181818;stroke-width:1;"/><path d="M213.1488,533.1706 Q212.5706,533.4675 211.93,533.6081 Q211.2894,533.7644 210.5863,533.7644 Q208.0863,533.7644 206.7581,532.1238 Q205.4456,530.4675 205.4456,527.3425 Q205.4456,524.2175 206.7581,522.5613 Q208.0863,520.905 210.5863,520.905 Q211.2894,520.905 211.93,521.0613 Q212.5863,521.2175 213.1488,521.5144 L213.1488,524.2331 Q212.5238,523.655 211.93,523.3894 Q211.3363,523.1081 210.7113,523.1081 Q209.3675,523.1081 208.68,524.1863 Q207.9925,525.2488 207.9925,527.3425 Q207.9925,529.4363 208.68,530.5144 Q209.3675,531.5769 210.7113,531.5769 Q211.3363,531.5769 211.93,531.3113 Q212.5238,531.03 213.1488,530.4519 L213.1488,533.1706 Z " fill="#000000"/><text fill="#000000" font-family="sans-serif" font-size="14" lengthAdjust="spacing" textLength="109.7441" x="224.18" y="532.3767">GraphDatabase</text><line style="stroke:#181818;stroke-width:0.5;" x1="196.18" x2="335.9241" y1="543.53" y2="543.53"/><line style="stroke:#181818;stroke-width:0.5;" x1="196.18" x2="335.9241" y1="551.53" y2="551.53"/></g><!--link Neo4jDatabase to Network--><g class="link" data-entity-1="Neo4jDatabase" data-entity-2="Network" data-source-line="27" data-uid="lnk4" id="link_Neo4jDatabase_Network"><path codeLine="27" d="M171.49,413.7 C153.07,453.14 138.7987,483.6835 128.4087,505.9335" fill="none" id="Neo4jDatabase-to-Network" style="stroke:#181818;stroke-width:1;"/><polygon fill="#181818" points="125.87,511.37,133.3023,504.9077,127.9855,506.8396,126.0537,501.5229,125.87,511.37" style="stroke:#181818;stroke-width:1;"/></g><!--link Neo4jDatabase to GraphDatabase--><g class="link" data-entity-1="Neo4jDatabase" data-entity-2="GraphDatabase" data-source-line="28" data-uid="lnk6" id="link_Neo4jDatabase_GraphDatabase"><path codeLine="28" d="M266.05,413.7 C266.05,453.14 266.05,483.12 266.05,505.37" fill="none" id="Neo4jDatabase-to-GraphDatabase" style="stroke:#181818;stroke-width:1;"/><polygon fill="#181818" points="266.05,511.37,270.05,502.37,266.05,506.37,262.05,502.37,266.05,511.37" style="stroke:#181818;stroke-width:1;"/></g><!--link Neo4jDatabase to DataFrame--><g class="link" data-entity-1="Neo4jDatabase" data-entity-2="DataFrame" data-source-line="29" data-uid="lnk9" id="link_Neo4jDatabase_DataFrame"><path codeLine="29" d="M366.87,413.7 C386.52,453.14 401.7554,483.7491 412.8354,505.9991" fill="none" id="Neo4jDatabase-to-DataFrame" style="stroke:#181818;stroke-width:1;"/><polygon fill="#181818" points="415.51,511.37,415.0787,501.5306,413.2812,506.8942,407.9175,505.0967,415.51,511.37" style="stroke:#181818;stroke-width:1;"/><text fill="#000000" font-family="sans-serif" font-size="13" lengthAdjust="spacing" textLength="29.7832" x="389.05" y="456.5969">uses</text></g><!--SRC=[dLF1Ri8m3BttAo9nAThWj1E7IPFGTfdO1w3A2ec1R2N9ufGDJVltEIaTPM8IS4aQs-yzkxPLBOd43DtTwrH6kP24ugiGOWHDC1D1CRGFmd1uUSPykA1_BJgORGfu2jAlEvvnQoquu0R0M1C1oipwugDnLjPpXbUteYN_Opne73c6YKtLZh0SJiJCMKm6_4JLH8Jt1iEkp6VEBT44kS68WNf4KwFYFBiVxAwgc8Zln4FH1GIBaPNVoltDCkr79vWYLnX1gcYsaY44RWahj5Yc0omhPda6F1kAMQ_gK05zGAABKQkclbWhXL2N9sfOx5feN9u5tATw3J1dUnOm8NMpMG2tQUqqy1_kjxRluYwKlIOCu8g-ysWHryI6txOFG0NaR44vos1fRAHU2WFmpkToGEz7-z_H-2wAurqQZUwxc1EUetqvuVVIQadZP7jCzOX9MXRw0G00]--></g></svg>